<?xml version="1.0" encoding="utf-8"?>
<!-- Generator: Adobe Illustrator 16.0.0, SVG Export Plug-In . SVG Version: 6.00 Build 0)  -->
<!DOCTYPE svg PUBLIC "-//W3C//DTD SVG 1.1//EN" "http://www.w3.org/Graphics/SVG/1.1/DTD/svg11.dtd">
<svg version="1.1" id="Layer_1" xmlns="http://www.w3.org/2000/svg" xmlns:xlink="http://www.w3.org/1999/xlink" x="0px" y="0px"
	 width="498.763px" height="211.008px" viewBox="0 0 498.763 211.008" enable-background="new 0 0 498.763 211.008"
	 xml:space="preserve">
<g>
	<g>
		<path fill="#FFFFFF" d="M217.954,83.822c14.079,0,24.04,12.602,46.347,12.602c20.604,0,18.801-18.561,27.313-18.561
			c6.134,0-3.303,19.134-27.313,19.134c-24.568,0-30.658-12.335-46.39-12.335c-5.783,0-7.217,9.234-11.639,9.234
			c-1.314,0-2.081-0.882-2.081-2.058C204.191,89.522,208.38,83.822,217.954,83.822z"/>
		<path fill="#FFFFFF" d="M264.301,97.34c-13.725,0-21.736-3.838-28.805-7.224c-5.725-2.743-10.669-5.112-17.585-5.112
			c-2.908,0-4.671,2.508-6.376,4.935c-1.554,2.21-3.022,4.299-5.263,4.299c-1.449,0-2.423-0.965-2.423-2.4
			c0-2.379,4.196-8.359,14.105-8.359c6.308,0,11.656,2.435,17.849,5.254c7.566,3.444,16.141,7.348,28.499,7.348
			c12.352,0,16.486-6.708,19.808-12.097c2.139-3.468,3.983-6.463,7.506-6.463c1.354,0,2.162,0.86,2.162,2.3
			C293.776,85.06,283.748,97.34,264.301,97.34z M291.614,78.205c-3.14,0-4.809,2.708-6.923,6.138
			c-2.916,4.731-6.442,10.452-15.36,12.013c15.475-1.879,23.761-12.108,23.761-16.536C293.092,78.749,292.595,78.205,291.614,78.205
			z M235.042,89.139c0.25,0.12,0.5,0.24,0.751,0.36c5.166,2.475,10.841,5.194,18.913,6.449c-7.639-1.334-13.678-4.084-19.186-6.591
			C235.358,89.283,235.2,89.211,235.042,89.139z M217.954,84.164c-9.293,0-13.42,5.56-13.42,7.674c0,1.042,0.682,1.716,1.738,1.716
			c1.885,0,3.253-1.947,4.703-4.008c1.722-2.449,3.674-5.226,6.937-5.226c2.919,0,5.529,0.429,7.977,1.12
			C223.315,84.65,220.723,84.164,217.954,84.164z"/>
	</g>
	<g>
		<path fill="#FFFFFF" d="M52.791,89.47c-1.063-0.143-2.141-0.228-3.246-0.228c-9.573,0-13.762,5.7-13.762,8.015
			c0,1.177,0.766,2.059,2.08,2.059c4.422,0,7.146-8.875,12.93-8.875c1.179,0,1.381-0.476,2.464-0.348
			C53.202,89.897,52.801,89.67,52.791,89.47z"/>
	</g>
	<g>
		<path fill="#FFFFFF" d="M199.651,100.275c-17.209,0-38.125,34.447-38.125,46.173c0,5.618,4.186,9.203,10.52,9.203
			c10.039,0,21.421-12.458,30.141-20.884l0.096-1.347c3.114-3.707-18.544,21.156-30.237,21.156c-6.394,0-6.035-7-6.035-8.425
			c0-15.417,26.052-44.755,33.521-44.755c1.911,0,3.872,0.604,3.872,3.202c0,8.838-50.24,32.769-50.24,46.751l0.956,1.494
			c0-16.91,50.455-35.792,50.455-48.221C204.575,101.813,201.937,100.275,199.651,100.275z"/>
	</g>
	<g>
		<path fill="#FFFFFF" d="M292.493,100.275c-17.209,0-38.125,34.447-38.125,46.173c0,5.618,5.478,9.203,11.812,9.203
			c10.425,0,19.521-9.808,27.481-17.306l0.046-3.2c0,0-17.887,19.287-28.819,19.287c-6.395,0-6.036-6.856-6.036-8.282
			c0-15.417,26.053-44.754,33.521-44.754c1.913,0,3.873,0.604,3.873,3.202c0,4.183-30.25,23.896-33.271,26.255
			c-2.591,2.024-3.562,4.22-1.194,2.498c10.519-7.649,35.493-22.515,35.493-28.729C297.273,101.813,294.778,100.275,292.493,100.275
			z"/>
	</g>
	<g>
		<path fill="#FFFFFF" d="M312.064,90.837c-4.022,0-9.609,8.317-9.609,12.739c0,5.378,8.061,6.241,9.942,6.241
			c4.661,0,12.728-2.097,12.728-0.45c0,2.256-24.559,22.405-24.559,37.783c0,4.303,3.726,8.484,7.798,8.484
			c8.354,0,20.254-14.404,23.697-19.821l0.944-2.613c-0.809,1.604-16.407,20.864-23.577,20.864c-1.781,0-5.24-1.028-5.24-4.973
			c0-15.131,23.177-29.159,23.177-39.812c0-4.661-8.336-0.253-15.013-0.253c-6.678,0-6.671-4.707-6.671-7.153
			c0-5.378,3.938-10.501,6.404-10.501c1.692,0,2.738,3.779,2.738,8.187c0,7.88-3.116,15.673-21.117,35.586l-0.046,3.2
			c7.053-7.487,23.313-22.577,23.313-39.339C316.975,91.117,314.38,90.837,312.064,90.837z"/>
	</g>
	<g>
		<path fill="#FFFFFF" d="M422.939,81.57c14.079,0,24.038,12.602,46.347,12.602c20.605,0,18.802-18.561,27.312-18.561
			c6.135,0-3.302,19.135-27.312,19.135c-24.568,0-30.657-12.336-46.39-12.336c-5.783,0-7.217,9.234-11.639,9.234
			c-1.314,0-2.081-0.881-2.081-2.058C409.177,87.27,413.366,81.57,422.939,81.57z"/>
		<path fill="#FFFFFF" d="M469.286,95.088c-13.725,0-21.736-3.838-28.805-7.224c-5.726-2.743-10.669-5.112-17.585-5.112
			c-2.907,0-4.671,2.509-6.376,4.935c-1.555,2.211-3.023,4.299-5.263,4.299c-1.45,0-2.424-0.965-2.424-2.4
			c0-2.379,4.196-8.358,14.105-8.358c6.308,0,11.654,2.435,17.848,5.254c7.565,3.444,16.143,7.348,28.499,7.348
			c12.352,0,16.486-6.708,19.809-12.098c2.137-3.468,3.983-6.463,7.504-6.463c1.354,0,2.164,0.86,2.164,2.3
			C498.763,82.808,488.733,95.088,469.286,95.088z M496.599,75.953c-3.139,0-4.809,2.708-6.921,6.138
			c-2.933,4.758-6.483,10.518-15.514,12.039c7.855-0.9,13.321-3.864,16.701-6.417c4.734-3.577,7.212-7.811,7.212-10.144
			C498.077,76.497,497.58,75.953,496.599,75.953z M440.038,86.893c0.246,0.118,0.492,0.235,0.739,0.354
			c5.167,2.475,10.841,5.193,18.911,6.449c-7.639-1.335-13.678-4.083-19.186-6.591C440.348,87.033,440.193,86.963,440.038,86.893z
			 M422.939,81.912c-9.294,0-13.42,5.561-13.42,7.674c0,1.042,0.682,1.716,1.738,1.716c1.885,0,3.253-1.947,4.702-4.008
			c1.722-2.45,3.674-5.226,6.937-5.226c2.914,0,5.519,0.427,7.963,1.116C428.292,82.397,425.703,81.912,422.939,81.912z"/>
	</g>
	<g>
		<g>
			<path fill="#FFFFFF" d="M415.354,125.598c1.781,13.94,4.576,28.805-6.439,28.805c-9.106,0,3.681-10.636-2.056-10.636
				c-9.919,0-4.78,11.831,2.056,11.831c17.36,0,12.417-20.417,10.074-35.864C417.879,121.628,416.657,123.599,415.354,125.598z"/>
		</g>
		<g>
			<path fill="#FFFFFF" d="M423.216,97.041c0.701,0,1.193,0.229,1.507,0.65c0.006-1.104-0.461-1.726-1.507-1.726
				c-9.356,0-9.484,15.462-8.231,26.558c1.287-1.923,2.502-3.805,3.606-5.602C417.539,108.873,417.727,97.041,423.216,97.041z"/>
		</g>
		<g>
			<path fill="#FFFFFF" d="M418.591,116.921c0.119,0.915,0.254,1.853,0.398,2.812c5.403-9.215,8.313-18.594,5.733-22.043
				C424.711,100.204,422.249,110.967,418.591,116.921z"/>
		</g>
		<g>
			<path fill="#FFFFFF" d="M414.971,122.037c0,0,0.203,2.138,0.384,3.561l1.926-2.454l1.709-3.41l-0.398-2.811L414.971,122.037z"/>
		</g>
	</g>
	<g>
		<path fill="#FFFFFF" d="M233.53,131.45c13.607-11.356,61.759-70.976,61.759-82.786c0-22.945-82.27,105.093-59.921,105.093
			c7.4,0,14.293-7.578,20.148-12.178l-0.134,0.784c0,0-12.883,13.186-20.014,13.186c-7.289,0-7.528-7.647-7.528-8.724
			c0-19.479,48.758-101.938,65.01-101.938c0,0,2.989-1.076,2.989,4.302c0,12.222-48.03,71.298-61.847,82.901
			C233.108,132.831,232.902,131.974,233.53,131.45z"/>
	</g>
	<g>
		<path fill="#FFFFFF" d="M331.239,137.573c13.606-11.357,64.334-76.998,64.334-88.808c0-22.945-82.27,105.092-59.92,105.092
			c7.4,0,15.507-8.614,21.362-13.216l-0.136,0.785c0,0-14.095,14.224-21.227,14.224c-7.289,0-7.529-7.649-7.529-8.724
			c0-19.479,48.758-101.938,65.012-101.938c0,0,2.987-1.076,2.987,4.302c0,12.222-50.604,77.32-64.424,88.923
			C330.817,138.956,330.611,138.099,331.239,137.573z"/>
	</g>
	<g>
		<path fill="#FFFFFF" d="M258.385,47.221h-4.11c-20.553,18.276-55.749,83.155-55.749,99.706c0,1.075,0.239,8.724,7.529,8.724
			c9.013,0,33.035-32.355,33.035-32.355l0.002-1.928c-5.86,9.307-27.072,32.49-33.038,32.49
			C187.939,153.857,238.559,66.87,258.385,47.221z"/>
	</g>
	<g>
		<path fill="#FFFFFF" d="M459.005,132.894c-8.585,9.907-19.976,20.963-24.095,20.963c-18.117,0,33.221-86.987,53.049-106.636
			h-4.111c-20.553,18.276-56.467,85.593-56.467,102.143c0,1.075,0.24,6.286,7.529,6.286c5.483,0,16.523-11.977,24.328-21.357
			C459.018,133.868,458.921,133.382,459.005,132.894z"/>
	</g>
	<g>
		<path fill="#FFFFFF" d="M231.825,8.858c-63.255,0-78.422,159.872-169.656,159.872c-21.774,0-33.909-9.886-33.909-18.472
			c0-5.666,4.675-13.507,20.622-13.142c42.283,0.968,91.28,73.892,150.668,73.892c43.829,0,49.664-28.469,49.664-34.243
			c0-3.667-1.045-13.878-9.629-13.878l-0.426,0.602c0,0,8.432,0.825,8.498,13.17c0.06,11.139-14.759,31.216-45.883,31.119
			c-64.82-0.2-111.828-72.465-152.431-72.465c-18.462,0-23.4,7.074-23.4,14.871c0,10.667,12.376,20.775,41.817,20.775
			c84.142,0,114.259-159.79,163.201-159.79c5.357,0,9.898,5.083,9.898,10.499c0,29.314-55.653,88.104-106.136,88.104
			c-36.752,0-54.285-15.286-54.285-45.025c0-27.138,28.579-62.112,74.178-62.112c56.079,0,53.53,39.85,53.53,39.85
			s0.425,30.588-33.138,30.588c-33.562,0-73.776-24.034-116.97-24.034c-46.249,0-55.807,26.61-55.807,40.63
			s8.789,36.084,35.129,36.084c26.34,0,29.314-17.996,29.314-21.215c0-11.866-6.963-15.5-16.865-15.5
			c-16.801,0-13.298,9.66-13.298,9.66l1.275-0.283c-0.374,1.912,1.794-7.974,10.948-7.974c9.529,0,15.742,3.965,15.742,13.671
			c0,9.706-9.129,19.943-27.397,19.943c-15.489,0-31.429-12.052-31.429-34.812c0-22.517,21.476-38.855,51.73-38.855
			c30.255,0,90.158,24.102,117.632,24.102c27.473,0,35.262-21.525,35.262-32.571S205.882,0,154.477,0
			C103.07,0,76.059,38.707,76.059,67.029c0,27.614,20.643,44.404,58.665,44.233c46.501-0.208,107.119-55.439,107.119-89.001
			C241.842,13.87,237.842,8.858,231.825,8.858z"/>
	</g>
	<g>
		<path fill="#FFFFFF" d="M416.72,120.092c-10.404,14.171-27.621,34.493-31.471,34.493c-4.38,0-3.39-8.391-1.52-13.487
			s16.094-28.211,19.223-34.227h-4.849c-7.525,11.494-25.813,47.146-37.545,47.146c-11.346,0,14.831-37.771,20.031-47.146h-4.846
			c-3.312,5.801-21.688,33.334-21.688,43.633c0,3.867,2.425,5.138,5.498,5.138c4.472,0,15.094-7.374,22.546-18.74
			c0,0-9.224,18.818,2.328,18.818c7.679,0,22.105-18.942,32.723-33.765C416.946,121.587,416.804,120.485,416.72,120.092z"/>
	</g>
	<g>
		<path fill="#FFFFFF" d="M423.647,96.007c0,0,2.021,0.208,2.021,4.578l-0.945-2.894L423.647,96.007z"/>
	</g>
</g>
</svg>
