<?xml version="1.0" encoding="utf-8"?>
<!-- Generator: Adobe Illustrator 16.0.0, SVG Export Plug-In . SVG Version: 6.00 Build 0)  -->
<!DOCTYPE svg PUBLIC "-//W3C//DTD SVG 1.1//EN" "http://www.w3.org/Graphics/SVG/1.1/DTD/svg11.dtd">
<svg version="1.1" id="Layer_1" xmlns="http://www.w3.org/2000/svg" xmlns:xlink="http://www.w3.org/1999/xlink" x="0px" y="0px"
	 width="53.076px" height="9.853px" viewBox="0 0 53.076 9.853" enable-background="new 0 0 53.076 9.853" xml:space="preserve">
<g>
	<g>
		<path fill="#FFFFFF" d="M7.875,1.74L6.772,3.083C6.197,2.424,5.37,1.992,4.59,1.992c-1.439,0-2.555,1.116-2.555,2.579
			c0,1.464,1.116,2.591,2.555,2.591c0.756,0,1.583-0.385,2.183-0.984l1.116,1.211C7,8.301,5.718,8.889,4.495,8.889
			c-2.507,0-4.402-1.859-4.402-4.293c0-2.423,1.931-4.246,4.474-4.246C5.777,0.348,7.049,0.888,7.875,1.74z"/>
		<path fill="#FFFFFF" d="M14.152,7.15v1.654H8.66V0.408h1.895v6.74h3.598V7.15z"/>
		<path fill="#FFFFFF" d="M23.343,4.606c0,2.423-1.943,4.283-4.509,4.283c-2.567,0-4.51-1.848-4.51-4.283
			c0-2.447,1.943-4.258,4.51-4.258C21.399,0.348,23.343,2.172,23.343,4.606z M16.267,4.606c0,1.476,1.188,2.626,2.591,2.626
			c1.403,0,2.542-1.15,2.542-2.626c0-1.475-1.139-2.602-2.542-2.602C17.441,2.004,16.267,3.131,16.267,4.606z"/>
		<path fill="#FFFFFF" d="M30.496,1.236l-0.731,1.571c-0.888-0.528-1.942-0.864-2.614-0.864c-0.636,0-1.066,0.228-1.066,0.684
			c0,1.547,4.473,0.684,4.461,3.707c0,1.643-1.428,2.531-3.286,2.531c-1.38,0-2.758-0.529-3.706-1.332l0.756-1.547
			c0.863,0.768,2.087,1.26,2.975,1.26c0.778,0,1.246-0.289,1.246-0.807c0-1.582-4.473-0.659-4.473-3.632
			c0-1.523,1.307-2.483,3.25-2.483C28.48,0.325,29.656,0.684,30.496,1.236z"/>
		<path fill="#FFFFFF" d="M33.414,1.98v1.823h4.054v1.571h-4.054v1.858h4.629v1.572H31.52V0.408h6.393v1.571L33.414,1.98
			L33.414,1.98z"/>
	</g>
	<g id="Line_7_3_">
		<g transform="matrix(0.711485 0.702701 -0.711485 0.702701 38130 -3052)">
			<path id="path1_stroke_3_" fill="#FFFFFF" d="M42.409,1.054l8.1,8L51.576,8l-8.1-8L42.409,1.054z"/>
		</g>
	</g>
	<g id="Line_7_2_">
		<g transform="matrix(0.711485 -0.702701 0.711485 0.702701 38130.9 -3044)">
			<path id="path1_stroke_2_" fill="#FFFFFF" d="M43.308,9.055l8.1-8L50.341,0L42.24,8L43.308,9.055z"/>
		</g>
	</g>
</g>
</svg>
