<?xml version="1.0" encoding="utf-8"?>
<!-- Generator: Adobe Illustrator 16.0.0, SVG Export Plug-In . SVG Version: 6.00 Build 0)  -->
<!DOCTYPE svg PUBLIC "-//W3C//DTD SVG 1.1//EN" "http://www.w3.org/Graphics/SVG/1.1/DTD/svg11.dtd">
<svg version="1.1" id="Layer_1" xmlns="http://www.w3.org/2000/svg" xmlns:xlink="http://www.w3.org/1999/xlink" x="0px" y="0px"
	 width="53.076px" height="9.853px" viewBox="0 0 53.076 9.853" enable-background="new 0 0 53.076 9.853" xml:space="preserve">
<g>
	<g>
		<path fill="#FFFFFF" d="M7.412,8.797V3.135l-2.231,4.81H3.946l-2.23-4.81v5.662H0V0.4h2.123L4.57,5.535L7.005,0.4h2.111v8.396
			H7.412z"/>
		<path fill="#FFFFFF" d="M12.875,1.972v1.823h4.054v1.572h-4.054v1.857h4.629v1.572H10.98V0.4h6.393v1.571L12.875,1.972
			L12.875,1.972z"/>
		<path fill="#FFFFFF" d="M24.872,8.797l-4.066-5.385v5.385h-1.811V0.4h1.727L24.8,5.797V0.4H26.6v8.396H24.872z"/>
		<path fill="#FFFFFF" d="M35.876,5.283c0,2.219-1.45,3.598-3.767,3.598c-2.326,0-3.812-1.379-3.812-3.598V0.4h1.895v4.883
			c0,1.211,0.792,1.941,1.919,1.941c1.128,0,1.87-0.73,1.87-1.941V0.4h1.896V5.283z"/>
	</g>
	<g id="Line_1_5_">
		<g transform="translate(36704 -3051)">
			<path id="path1_stroke_1_" fill="#FFFFFF" d="M41.076,2.046h12v-1.5h-12V2.046z"/>
		</g>
	</g>
	<g id="Line_1_4_">
		<g transform="translate(36704 -3047.57)">
			<path id="path2_stroke_1_" fill="#FFFFFF" d="M41.076,5.477H49.9v-1.5h-8.824V5.477z"/>
		</g>
	</g>
	<g id="Line_1_3_">
		<g transform="translate(36704 -3045)">
			<path id="path3_stroke_1_" fill="#FFFFFF" d="M41.076,8.797h10.412v-1.5H41.076V8.797z"/>
		</g>
	</g>
</g>
</svg>
